<svg width="25" height="24" viewBox="0 0 25 24" fill="none" xmlns="http://www.w3.org/2000/svg">
<path d="M17.75 20.5H7.75C4.75 20.5 2.75 19 2.75 15.5V8.5C2.75 5 4.75 3.5 7.75 3.5H17.75C20.75 3.5 22.75 5 22.75 8.5V15.5C22.75 19 20.75 20.5 17.75 20.5Z" stroke="#9F9C9C" stroke-width="1.5" stroke-miterlimit="10" stroke-linecap="round" stroke-linejoin="round"/>
<path d="M12.75 15C14.4069 15 15.75 13.6569 15.75 12C15.75 10.3431 14.4069 9 12.75 9C11.0931 9 9.75 10.3431 9.75 12C9.75 13.6569 11.0931 15 12.75 15Z" stroke="#9F9C9C" stroke-width="1.5" stroke-miterlimit="10" stroke-linecap="round" stroke-linejoin="round"/>
<path d="M2.75 9H3.75C6.75 9 7.75 8 7.75 5V4" stroke="#9F9C9C" stroke-width="1.5" stroke-miterlimit="10" stroke-linecap="round" stroke-linejoin="round"/>
<path d="M22.75 9H21.75C18.75 9 17.75 8 17.75 5V4" stroke="#9F9C9C" stroke-width="1.5" stroke-miterlimit="10" stroke-linecap="round" stroke-linejoin="round"/>
<path d="M2.75 15H3.75C6.75 15 7.75 16 7.75 19V20" stroke="#9F9C9C" stroke-width="1.5" stroke-miterlimit="10" stroke-linecap="round" stroke-linejoin="round"/>
<path d="M22.75 15H21.75C18.75 15 17.75 16 17.75 19V20" stroke="#9F9C9C" stroke-width="1.5" stroke-miterlimit="10" stroke-linecap="round" stroke-linejoin="round"/>
</svg>
