<svg width="25" height="24" viewBox="0 0 25 24" fill="none" xmlns="http://www.w3.org/2000/svg">
<path d="M12.75 15C14.4069 15 15.75 13.6569 15.75 12C15.75 10.3431 14.4069 9 12.75 9C11.0931 9 9.75 10.3431 9.75 12C9.75 13.6569 11.0931 15 12.75 15Z" fill="#4BA86E"/>
<path d="M17.75 3.5H7.75C4.75 3.5 2.75 5 2.75 8.5V9V15V15.5C2.75 19 4.75 20.5 7.75 20.5H17.75C20.75 20.5 22.75 19 22.75 15.5V15V9V8.5C22.75 5 20.75 3.5 17.75 3.5ZM7.75 19C7.75 16.18 6.84 15.14 4.25 15.02V15V9V8.98C6.84 8.86 7.75 7.82 7.75 5H17.75C17.75 7.82 18.66 8.86 21.25 8.98V9V15V15.02C18.66 15.14 17.75 16.18 17.75 19H7.75Z" fill="#4BA86E"/>
</svg>
