<svg width="25" height="24" viewBox="0 0 25 24" fill="none" xmlns="http://www.w3.org/2000/svg">
<path d="M11.26 20.02C16.2361 20.02 20.27 15.9861 20.27 11.01C20.27 6.03391 16.2361 2 11.26 2C6.28391 2 2.25 6.03391 2.25 11.01C2.25 15.9861 6.28391 20.02 11.26 20.02Z" fill="#4BA86E"/>
<path d="M22.2401 18.95C21.9101 18.34 21.2101 18 20.2701 18C19.5601 18 18.9501 18.29 18.5901 18.79C18.2301 19.29 18.1501 19.96 18.3701 20.63C18.8001 21.93 19.5501 22.22 19.9601 22.27C20.0201 22.28 20.0801 22.28 20.1501 22.28C20.5901 22.28 21.2701 22.09 21.9301 21.1C22.4601 20.33 22.5601 19.56 22.2401 18.95Z" fill="#4BA86E"/>
</svg>
