<svg width="18" height="18" viewBox="0 0 18 18" fill="none" xmlns="http://www.w3.org/2000/svg">
<path fill-rule="evenodd" clip-rule="evenodd" d="M8.88341 16.2462C6.11455 16.2462 3.75 15.8154 3.75 14.0898C3.75 12.3642 6.09955 10.7712 8.88341 10.7712C11.6523 10.7712 14.0168 12.3488 14.0168 14.0743C14.0168 15.7992 11.6673 16.2462 8.88341 16.2462Z" stroke="#666666" stroke-width="1.13" stroke-linecap="round" stroke-linejoin="round"/>
<path fill-rule="evenodd" clip-rule="evenodd" d="M8.87788 8.38003C10.6949 8.38003 12.1676 6.9073 12.1676 5.09026C12.1676 3.27321 10.6949 1.7998 8.87788 1.7998C7.06083 1.7998 5.58742 3.27321 5.58742 5.09026C5.58129 6.90117 7.04379 8.3739 8.85469 8.38003C8.86288 8.38003 8.87038 8.38003 8.87788 8.38003Z" stroke="#666666" stroke-width="1.13" stroke-linecap="round" stroke-linejoin="round"/>
</svg>
