<svg width="10" height="10" viewBox="0 0 10 10" fill="none" xmlns="http://www.w3.org/2000/svg">
<path fill-rule="evenodd" clip-rule="evenodd" d="M9.5 5C9.5 7.48528 7.48528 9.5 5 9.5C2.51472 9.5 0.5 7.48528 0.5 5C0.5 2.51472 2.51472 0.5 5 0.5C7.48528 0.5 9.5 2.51472 9.5 5ZM5 2C5.27614 2 5.5 2.22386 5.5 2.5V6C5.5 6.27614 5.27614 6.5 5 6.5C4.72386 6.5 4.5 6.27614 4.5 6L4.5 2.5C4.5 2.22386 4.72386 2 5 2ZM4.375 7.375C4.375 7.72018 4.65482 8 5 8C5.34518 8 5.625 7.72018 5.625 7.375C5.625 7.02982 5.34518 6.75 5 6.75C4.65482 6.75 4.375 7.02982 4.375 7.375Z" fill="#35764D"/>
</svg>
